<?xml version="1.0" encoding="utf-8"?>
<!-- Generator: Adobe Illustrator 24.3.0, SVG Export Plug-In . SVG Version: 6.00 Build 0)  -->
<svg version="1.1" id="Layer_1" xmlns="http://www.w3.org/2000/svg" xmlns:xlink="http://www.w3.org/1999/xlink" x="0px" y="0px"
	 viewBox="0 0 344.6 79.3" style="enable-background:new 0 0 344.6 79.3;" xml:space="preserve">
<style type="text/css">
	.st0{fill:#FFFFFF;}
</style>
<g>
	<g>
		<path class="st0" d="M93.1,36.4H89v-6.5h4.1v-1.5c0-10.8,8.9-12.2,13.5-12.2c1.7,0,2.8,0.2,2.8,0.2v7c0,0-0.7-0.1-1.7-0.1
			c-2.3,0-6.4,0.6-6.4,5.4v1.3h7.1v6.5h-7.1v26h-8.2V36.4z M113.4,16.4h8.2v34.5c0,3.6,1.2,4.5,3.4,4.5c0.6,0,1.2-0.1,1.2-0.1v7.2
			c0,0-1.2,0.2-2.6,0.2c-4.5,0-10.2-1.2-10.2-10.6V16.4z"/>
		<path class="st0" d="M144.7,28.6c10.1,0,18.2,7.2,18.2,17.3c0,10.2-8.1,17.3-18.1,17.3c-10.1,0-18.2-7.1-18.2-17.3
			C126.6,35.8,134.7,28.6,144.7,28.6z M144.8,56.2c5.3,0,9.8-4.1,9.8-10.3c0-6.1-4.5-10.3-9.8-10.3c-5.4,0-9.9,4.2-9.9,10.3
			C134.9,52,139.4,56.2,144.8,56.2z"/>
		<path class="st0" d="M162.7,29.3h8.7l5.8,21.7c0.5,1.8,0.6,3.5,0.6,3.5h0.1c0,0,0.3-1.7,0.8-3.5l6.1-21.6h7.3l6.1,21.6
			c0.5,1.8,0.7,3.5,0.7,3.5h0.1c0,0,0.3-1.7,0.7-3.5l5.8-21.7h8.6l-10,33.1h-9.1l-5.6-18.9c-0.5-1.8-0.8-3.6-0.8-3.6h-0.1
			c0,0-0.3,1.8-0.8,3.6L182,62.4h-9.2L162.7,29.3z"/>
		<path class="st0" d="M217.2,52.6c0,0,3.6,3.6,9,3.6c2.3,0,4.3-1,4.3-3c0-4.9-16.1-4.3-16.1-14.9c0-6.2,5.5-9.7,12.6-9.7
			c7.5,0,11.1,3.8,11.1,3.8l-3,6.1c0,0-3-2.9-8.1-2.9c-2.1,0-4.2,0.9-4.2,3c0,4.7,16.1,4.1,16.1,14.7c0,5.5-4.8,9.9-12.6,9.9
			c-8.2,0-12.8-4.9-12.8-4.9L217.2,52.6z"/>
		<path class="st0" d="M243.7,36.4h-4.3v-6.5h4.5v-9.5h8v9.5h7.5v6.5H252v12.8c0,5.4,4.3,6.2,6.5,6.2c0.9,0,1.5-0.1,1.5-0.1v7.2
			c0,0-1,0.2-2.5,0.2c-4.6,0-13.7-1.4-13.7-12.4V36.4z"/>
		<path class="st0" d="M280.3,41.7h1.1v-0.5c0-4.3-2.7-5.8-6.4-5.8c-4.7,0-9.1,3.2-9.1,3.2l-3.1-5.9c0,0,5.1-4.1,13-4.1
			c8.7,0,13.7,4.8,13.7,13.2v20.7H282v-2.7c0-1.3,0.1-2.3,0.1-2.3H282c0.1,0-2.5,5.8-10,5.8c-5.9,0-11.2-3.7-11.2-10.3
			C260.7,42.4,274.9,41.7,280.3,41.7z M274,56.8c4.3,0,7.5-4.7,7.5-8.7v-0.8H280c-4.2,0-11,0.6-11,5.2C269,54.7,270.6,56.8,274,56.8
			z"/>
		<path class="st0" d="M296.1,36.4h-4.3v-6.5h4.5v-9.5h8v9.5h7.5v6.5h-7.5v12.8c0,5.4,4.3,6.2,6.5,6.2c0.9,0,1.5-0.1,1.5-0.1v7.2
			c0,0-1,0.2-2.5,0.2c-4.6,0-13.7-1.4-13.7-12.4V36.4z"/>
		<path class="st0" d="M330.3,28.6c9.5,0,14.6,6.9,14.6,15.7c0,1-0.2,3.2-0.2,3.2H322c0.5,5.8,5,8.7,9.9,8.7c5.3,0,9.5-3.6,9.5-3.6
			l3.2,5.9c0,0-5.1,4.7-13.3,4.7c-11,0-17.8-7.9-17.8-17.3C313.5,35.7,320.5,28.6,330.3,28.6z M336.7,41.8c-0.1-4.5-2.9-6.9-6.5-6.9
			c-4.2,0-7.1,2.6-7.9,6.9H336.7z"/>
	</g>
	<g>
		<g>
			<path class="st0" d="M0,14.9C0,14.9,0,15,0,14.9c1.6-1.4,3.4-2.8,5.4-3.9c8.4-4.9,18.2-4.9,25.4-0.9c3.2,1.8,5.9,4.3,7.8,7.6
				c2,3.5,2.9,7.4,2.7,11.4c-0.1,1.1,0.4,2.2,1.3,2.8c3.7,2.9,8.1,4.9,12.7,5.8c0.6,0.1,1.2-0.2,1.3-0.8c1.2-7,0.1-14.5-3.8-21.1
				C48,7.5,40.1,2.2,31.6,0.6C24.7-0.8,17.4,0.2,10.9,4C6.2,6.7,2.5,10.5,0,14.9z"/>
		</g>
		<g>
			<path class="st0" d="M77.5,9.5C77.5,9.5,77.4,9.5,77.5,9.5c0.4,2.1,0.7,4.4,0.7,6.7c0,9.7-4.8,18.2-11.9,22.4
				c-3.1,1.9-6.7,2.9-10.4,2.9c-4.1,0-7.9-1.2-11.2-3.4c-0.9-0.6-2.1-0.7-3.1-0.3c-4.4,1.8-8.3,4.6-11.4,8.1
				c-0.4,0.4-0.4,1.1,0.1,1.5c5.4,4.6,12.5,7.3,20.2,7.3c9.5,0,18-4.2,23.7-10.7c4.6-5.3,7.4-12.2,7.4-19.7
				C81.5,19,80,13.9,77.5,9.5z"/>
		</g>
		<g>
			<path class="st0" d="M43.4,79.3C43.4,79.3,43.4,79.2,43.4,79.3c-2.1-0.7-4.1-1.6-6.1-2.7C28.8,71.7,23.9,63.3,23.8,55
				c-0.1-3.6,0.8-7.2,2.7-10.5c2-3.5,5-6.2,8.5-8c1-0.5,1.7-1.4,1.8-2.5c0.6-4.7,0.2-9.5-1.3-13.9c-0.2-0.6-0.8-0.9-1.4-0.7
				c-6.7,2.4-12.6,7.2-16.4,13.8c-4.7,8.2-5.4,17.6-2.6,25.8c2.3,6.6,6.8,12.5,13.3,16.2C33.2,78,38.3,79.3,43.4,79.3z"/>
		</g>
	</g>
</g>
</svg>
